<svg width="97" height="41" viewBox="0 0 97 41" fill="none" xmlns="http://www.w3.org/2000/svg">
    <path d="M11.5082 7.78747L15.2925 0.734841C15.4816 0.382384 15.8626 0.176531 16.261 0.211484L39.5336 2.25293C40.1064 2.30318 40.5189 2.82497 40.4356 3.39391L39.4093 10.4074C39.3332 10.9276 38.8673 11.3 38.3431 11.2597L12.3126 9.25734C11.5922 9.20192 11.1665 8.42417 11.5082 7.78747Z" fill="#ECE41D"/>
    <path d="M2.08704 23.0747L12.6943 3.46745C13.1807 2.56826 12.1638 1.6048 11.2922 2.13903L1.3278 8.24622C1.04558 8.41919 0.867237 8.72062 0.851493 9.05126L0.208631 22.5514C0.158042 23.6137 1.58098 24.0102 2.08704 23.0747Z" fill="#2B86D9"/>
    <path d="M2.11112 30.1917L1.1218 28.0481C0.989463 27.7614 1.00034 27.429 1.15113 27.1516L5.4536 19.235C5.84374 18.5172 6.8834 18.5448 7.23493 19.2823L15.9666 37.6017C16.4065 38.5246 15.3416 39.4348 14.4984 38.8566L2.45355 30.5973C2.30494 30.4954 2.18663 30.3553 2.11112 30.1917Z" fill="#6DB0FF"/>
    <path d="M17.8667 39.6111L14.8214 33.2158C14.502 32.5451 14.9984 31.7725 15.7412 31.7857C18.4799 31.8346 22.1264 31.898 24.4236 31.9379C25.2817 31.9527 25.7232 32.9684 25.1482 33.6056L19.5107 39.8526C19.0334 40.3815 18.173 40.2544 17.8667 39.6111Z" fill="#2B86D9"/>
    <path d="M37.1289 20.7029L23.1575 37.5149C22.4737 38.3376 23.3853 39.5147 24.353 39.0585L37.6854 32.7736C37.8189 32.7107 37.9367 32.6191 38.0306 32.5052L42.7576 26.7715C43.0662 26.3973 43.0617 25.8556 42.7469 25.4865L38.6588 20.6932C38.2563 20.2211 37.5254 20.2258 37.1289 20.7029Z" fill="#ECE41D"/>
    <path d="M64.8225 15.6122H71.8921C71.8324 9.89985 67.2834 6.03693 60.184 6.03693C53.2038 6.03693 48.1776 9.84019 48.2223 15.5227C48.2074 20.1612 51.4588 22.7713 56.7386 23.9794L59.9304 24.7251C63.2862 25.5007 64.7926 26.4105 64.8225 28.1257C64.7926 29.9901 63.0476 31.2876 60.0796 31.2876C56.8132 31.2876 54.6655 29.7663 54.5014 26.8281H47.4318C47.5213 33.9723 52.4879 37.3878 60.169 37.3878C67.7756 37.3878 72.2798 33.9425 72.3097 28.1406C72.2798 23.2635 68.9837 20.2805 62.9581 18.9531L60.3331 18.3565C57.559 17.7599 55.799 16.8352 55.8587 15.0156C55.8736 13.3452 57.3054 12.1371 60.169 12.1371C63.0476 12.1371 64.6286 13.4347 64.8225 15.6122Z" fill="white"/>
    <path d="M69.9484 37H77.3312V28.7223L80.2843 24.9936L87.8908 37H96.7204L85.6984 20.0866L96.5265 6.45454H87.8312L77.7339 19.3707H77.3312V6.45454H69.9484V37Z" fill="white"/>
</svg>
